<svg width="24" height="24" viewBox="0 0 24 24" fill="none" xmlns="http://www.w3.org/2000/svg">
<g id="icons" clip-path="url(#clip0_593_1054)">
<path id="Vector" d="M20.4853 19.0709L13.4142 11.9999L20.4853 4.92879C20.6728 4.74126 20.7782 4.4869 20.7782 4.22168C20.7782 3.95647 20.6728 3.70211 20.4853 3.51458V3.51458C20.2977 3.32704 20.0434 3.22168 19.7782 3.22169C19.513 3.22169 19.2586 3.32704 19.0711 3.51458L12 10.5856L4.92893 3.51458C4.7414 3.32704 4.48704 3.22169 4.22182 3.22169C3.95661 3.22168 3.70225 3.32704 3.51472 3.51458V3.51458C3.32718 3.70211 3.22182 3.95647 3.22182 4.22168C3.22183 4.4869 3.32718 4.74126 3.51472 4.92879L10.5858 11.9999L3.51472 19.0709C3.32718 19.2585 3.22182 19.5128 3.22182 19.778C3.22182 20.0433 3.32718 20.2976 3.51472 20.4851C3.70225 20.6727 3.95661 20.778 4.22182 20.778C4.48704 20.778 4.7414 20.6727 4.92893 20.4851L12 13.4141L19.0711 20.4851C19.2586 20.6727 19.513 20.778 19.7782 20.778C20.0434 20.778 20.2977 20.6727 20.4853 20.4851C20.6728 20.2976 20.7782 20.0433 20.7782 19.778C20.7782 19.5128 20.6728 19.2585 20.4853 19.0709Z" fill="#B6B6B6"/>
</g>
<defs>
<clipPath id="clip0_593_1054">
<rect width="24" height="24" fill="white"/>
</clipPath>
</defs>
</svg>
