<svg width="36" height="36" viewBox="0 0 36 36" fill="none" xmlns="http://www.w3.org/2000/svg">
<g id="icons_social_media">
<path id="Vector" d="M28.2084 25.2883H27.9723C26.9207 25.2883 25.8688 25.2848 24.8173 25.2917C24.654 25.2917 24.5764 25.2565 24.5151 25.0796C23.9777 23.5266 23.0757 22.2655 21.6942 21.404C20.9745 20.9556 20.1928 20.6944 19.3357 20.6008V25.2568C19.3088 25.2698 19.2805 25.2793 19.2514 25.2852C16.9746 25.3313 14.811 24.904 12.8612 23.619C11.2678 22.5692 10.1231 21.1136 9.31203 19.3642C8.69524 18.0245 8.28256 16.5944 8.08863 15.1244C7.95723 14.1524 7.89005 13.1709 7.79169 12.1733H11.3123C11.3227 12.3812 11.3331 12.5952 11.3442 12.8092C11.4381 14.6096 11.7425 16.3594 12.532 17.9873C13.0888 19.141 13.8438 20.1241 14.9395 20.7803C15.2735 20.9794 15.6388 21.1175 16.0341 21.3039V12.1694H19.3179V17.3617C19.5213 17.3172 19.7009 17.2907 19.8747 17.2382C20.8219 16.949 21.5821 16.356 22.2469 15.6272C23.1153 14.6754 23.7577 13.528 24.1235 12.2757C24.1343 12.2396 24.1503 12.2047 24.1647 12.1667H27.4311C27.1928 13.5476 26.6516 14.7776 25.8722 15.9015C25.0927 17.0253 24.1454 17.9685 22.9896 18.6988C25.6305 20.1306 27.3528 22.3188 28.2084 25.2883Z" fill="white"/>
</g>
</svg>
