<svg width="20" height="20" viewBox="0 0 20 20" fill="none" xmlns="http://www.w3.org/2000/svg">
<path d="M19.2446 13.9735C19.7283 14.4585 20 15.1156 20 15.8006C20 16.4856 19.7283 17.1427 19.2446 17.6278L18.485 18.5034C11.6482 25.0483 -4.98861 8.41682 1.45576 1.55889L2.41574 0.724187C2.90138 0.253979 3.55264 -0.00613838 4.2286 0.000110022C4.90457 0.00635842 5.5509 0.27847 6.02777 0.757575C6.05365 0.783451 7.60046 2.79258 7.60046 2.79258C8.05944 3.27473 8.31494 3.9152 8.31385 4.58086C8.31277 5.24651 8.05517 5.88614 7.59462 6.36679L6.62796 7.58212C7.16292 8.88185 7.94945 10.0631 8.94235 11.0579C9.93526 12.0527 11.115 12.8416 12.4137 13.3791L13.6366 12.4067C14.1174 11.9466 14.7569 11.6893 15.4225 11.6883C16.088 11.6874 16.7282 11.9429 17.2103 12.4017C17.2103 12.4017 19.2187 13.9476 19.2446 13.9735ZM18.096 15.1871C18.096 15.1871 16.0984 13.6504 16.0725 13.6245C15.9005 13.454 15.6681 13.3584 15.426 13.3584C15.1838 13.3584 14.9514 13.454 14.7794 13.6245C14.7569 13.6479 13.0732 14.9893 13.0732 14.9893C12.9597 15.0796 12.8247 15.1388 12.6814 15.161C12.5381 15.1833 12.3914 15.1678 12.2559 15.1162C10.5734 14.4898 9.04522 13.5091 7.77479 12.2407C6.50436 10.9722 5.5214 9.44554 4.89249 7.76408C4.83672 7.62674 4.81855 7.47702 4.83982 7.33032C4.86109 7.18362 4.92105 7.04523 5.01353 6.92938C5.01353 6.92938 6.355 5.24495 6.37753 5.22324C6.54805 5.05128 6.64372 4.81893 6.64372 4.57677C6.64372 4.3346 6.54805 4.10225 6.37753 3.93029C6.35166 3.90525 4.81486 1.90613 4.81486 1.90613C4.64031 1.74963 4.4125 1.66581 4.17814 1.67187C3.94377 1.67792 3.7206 1.77338 3.55436 1.93868L2.59438 2.77339C-2.11536 8.43602 12.3019 22.0526 17.2645 17.3632L18.025 16.4867C18.2032 16.3217 18.3102 16.0938 18.3235 15.8513C18.3367 15.6088 18.2551 15.3706 18.096 15.1871Z" fill="white"/>
</svg>
