<svg width="161" height="48" viewBox="0 0 161 48" fill="none" xmlns="http://www.w3.org/2000/svg">
<g id="Frame 20">
<g id="Vector">
<path d="M27.4553 36.0254L14.2888 13.7319L13.8232 12.934L13.2664 13.8649L5.9599 25.8678L10.8143 25.8927L13.8067 20.9219L17.6136 27.4221H5.05376L0 35.9671H4.76287L7.37288 31.5201H20.0158L22.6426 36.0254H27.4553Z" fill="white"/>
<path d="M31.6526 16.7658H26.873L21.7361 8.0629L19.5665 11.4293L24.4043 19.3011L32.1181 32.077H36.0996L28.4275 18.927H32.8329L43.057 35.909H29.7408L14.9284 11.0968L21.6779 0L31.6526 16.7658Z" fill="white"/>
<path d="M62.0342 31.8351H53.6306L52.0262 35.7169H47.7371L55.8083 17.6127H59.9478L68.0439 35.7169H63.6467L62.0342 31.8351ZM60.7207 28.6515L57.8531 21.719L54.9771 28.6515H60.7207Z" fill="white"/>
<path d="M73.7378 34.8193C72.2498 34.0214 71.0779 32.9075 70.2216 31.4861C69.3655 30.0648 68.9416 28.4604 68.9416 26.6651C68.9416 24.8695 69.3655 23.2653 70.2216 21.844C71.0779 20.4225 72.2498 19.3087 73.7378 18.5106C75.2257 17.7127 76.9047 17.3054 78.7666 17.3054C80.3377 17.3054 81.7508 17.5798 83.0225 18.1366C84.2859 18.6853 85.35 19.4832 86.2144 20.514L83.5213 22.9994C82.2993 21.5862 80.7783 20.8796 78.9662 20.8796C77.8441 20.8796 76.8464 21.129 75.9654 21.6195C75.0844 22.1099 74.4027 22.7998 73.9122 23.6726C73.422 24.5537 73.1726 25.5512 73.1726 26.6732C73.1726 27.7955 73.422 28.793 73.9122 29.674C74.4027 30.5551 75.0927 31.2367 75.9654 31.7272C76.8464 32.2176 77.8441 32.4669 78.9662 32.4669C80.7783 32.4669 82.291 31.7521 83.5213 30.3224L86.2144 32.8078C85.35 33.8635 84.2859 34.6614 83.0059 35.2101C81.7257 35.7585 80.3044 36.0413 78.7417 36.0413C76.8965 36.0245 75.2339 35.6172 73.7378 34.8193Z" fill="white"/>
<path d="M92.1245 34.8193C90.6366 34.0214 89.4647 32.9075 88.6085 31.4861C87.7522 30.0648 87.3284 28.4604 87.3284 26.6651C87.3284 24.8695 87.7522 23.2653 88.6085 21.844C89.4647 20.4225 90.6366 19.3087 92.1245 18.5106C93.6125 17.7127 95.2916 17.3054 97.1535 17.3054C98.7244 17.3054 100.138 17.5798 101.409 18.1366C102.673 18.6853 103.737 19.4832 104.601 20.514L101.908 22.9994C100.686 21.5862 99.165 20.8796 97.3529 20.8796C96.2308 20.8796 95.2334 21.129 94.3521 21.6195C93.4711 22.1099 92.7894 22.7998 92.2992 23.6726C91.8087 24.5537 91.5593 25.5512 91.5593 26.6732C91.5593 27.7955 91.8087 28.793 92.2992 29.674C92.7894 30.5551 93.4795 31.2367 94.3521 31.7272C95.2334 32.2176 96.2308 32.4669 97.3529 32.4669C99.165 32.4669 100.678 31.7521 101.908 30.3224L104.601 32.8078C103.737 33.8635 102.673 34.6614 101.393 35.2101C100.113 35.7585 98.6911 36.0413 97.1284 36.0413C95.2832 36.0245 93.6125 35.6172 92.1245 34.8193Z" fill="white"/>
<path d="M107.344 17.6046H111.508V29.3998L120.145 17.6046H124.077V35.7088H119.937V23.9469L111.301 35.717H107.344V17.6046Z" fill="white"/>
<path d="M132.131 34.8193C130.643 34.0214 129.471 32.9075 128.615 31.4861C127.759 30.0648 127.335 28.4604 127.335 26.6651C127.335 24.8695 127.759 23.2653 128.615 21.844C129.471 20.4225 130.643 19.3087 132.131 18.5106C133.619 17.7127 135.298 17.3054 137.16 17.3054C138.731 17.3054 140.144 17.5798 141.416 18.1366C142.679 18.6853 143.743 19.4832 144.608 20.514L141.915 22.9994C140.693 21.5862 139.172 20.8796 137.359 20.8796C136.237 20.8796 135.24 21.129 134.359 21.6195C133.478 22.1099 132.796 22.7998 132.306 23.6726C131.815 24.5537 131.566 25.5512 131.566 26.6732C131.566 27.7955 131.815 28.793 132.306 29.674C132.796 30.5551 133.486 31.2367 134.359 31.7272C135.24 32.2176 136.237 32.4669 137.359 32.4669C139.172 32.4669 140.684 31.7521 141.915 30.3224L144.608 32.8078C143.743 33.8635 142.679 34.6614 141.399 35.2101C140.119 35.7585 138.698 36.0413 137.135 36.0413C135.29 36.0245 133.619 35.6172 132.131 34.8193Z" fill="white"/>
<path d="M160.999 21.021H155.206V35.7088H151.066V21.021H145.298V17.6046H160.991V21.021H160.999Z" fill="white"/>
</g>
</g>
</svg>
