<svg width="73" height="61" viewBox="0 0 73 61" fill="none" xmlns="http://www.w3.org/2000/svg">
<path d="M69.8903 10.3305C71.6078 10.3305 73.0001 11.722 73.0001 13.4386V50.4264C73.0001 52.143 71.6078 53.5346 69.8903 53.5346H12.2365C10.519 53.5346 9.12671 52.143 9.12671 50.4264V13.4386C9.12671 11.722 10.519 10.3305 12.2365 10.3305H27.6435V5.97654C27.6435 2.8968 30.1417 0.399994 33.2231 0.399994H48.9024C51.9838 0.399994 54.482 2.8968 54.482 5.97654V10.3305H69.8903Z" fill="#005CB9" fill-opacity="0.4"/>
<g filter="url(#filter0_b_408_507)">
<path d="M62.4401 16.7084H4.90352C3.18952 16.7084 1.80005 18.0899 1.80005 19.794V56.5143C1.80005 58.2185 3.18952 59.6 4.90352 59.6H62.4401C64.1541 59.6 65.5436 58.2185 65.5436 56.5143V19.794C65.5436 18.0899 64.1541 16.7084 62.4401 16.7084Z" fill="white" fill-opacity="0.2"/>
<path d="M20.2792 16.7084V12.386C20.2792 9.32851 22.7723 6.84976 25.8475 6.84976H41.4949C44.57 6.84976 47.0631 9.32851 47.0631 12.386V16.7084" fill="white" fill-opacity="0.2"/>
<path d="M38.3721 39.3308V41.4562C38.3721 42.355 37.6394 43.0835 36.7354 43.0835H30.607C29.703 43.0835 28.9703 42.355 28.9703 41.4562V35.3374C28.9703 32.7563 31.0744 30.6642 33.6705 30.6642C36.2666 30.6642 38.3708 32.7563 38.3708 35.3374V39.3308" fill="white" fill-opacity="0.2"/>
<path d="M28.9715 38.8187L1.80005 31.5604M65.5436 31.5604L38.3721 38.8187M20.2792 16.7084V12.386C20.2792 9.32851 22.7723 6.84976 25.8475 6.84976H41.4949C44.57 6.84976 47.0631 9.32851 47.0631 12.386V16.7084M38.3721 39.3308V41.4562C38.3721 42.355 37.6394 43.0835 36.7354 43.0835H30.607C29.703 43.0835 28.9703 42.355 28.9703 41.4562V35.3374C28.9703 32.7563 31.0744 30.6642 33.6705 30.6642C36.2666 30.6642 38.3708 32.7563 38.3708 35.3374V39.3308M4.90352 16.7084H62.4401C64.1541 16.7084 65.5436 18.0899 65.5436 19.794V56.5143C65.5436 58.2185 64.1541 59.6 62.4401 59.6H4.90352C3.18952 59.6 1.80005 58.2185 1.80005 56.5143V19.794C1.80005 18.0899 3.18952 16.7084 4.90352 16.7084Z" stroke="url(#paint0_linear_408_507)" stroke-width="2" stroke-miterlimit="10"/>
</g>
<defs>
<filter id="filter0_b_408_507" x="-3.19995" y="1.84976" width="73.7435" height="62.7502" filterUnits="userSpaceOnUse" color-interpolation-filters="sRGB">
<feFlood flood-opacity="0" result="BackgroundImageFix"/>
<feGaussianBlur in="BackgroundImageFix" stdDeviation="2"/>
<feComposite in2="SourceAlpha" operator="in" result="effect1_backgroundBlur_408_507"/>
<feBlend mode="normal" in="SourceGraphic" in2="effect1_backgroundBlur_408_507" result="shape"/>
</filter>
<linearGradient id="paint0_linear_408_507" x1="19.7508" y1="47.4427" x2="48.8914" y2="9.75244" gradientUnits="userSpaceOnUse">
<stop stop-color="white"/>
<stop offset="0.95542" stop-color="#969798"/>
</linearGradient>
</defs>
</svg>
