<svg width="73" height="72" viewBox="0 0 73 72" fill="none" xmlns="http://www.w3.org/2000/svg">
<path d="M38.9835 0.799988C57.3161 0.799988 72.1999 14.7667 72.1999 31.9697V59.4332C72.1999 61.4787 70.4302 63.1394 68.2504 63.1394H38.9835C20.6509 63.1394 5.76709 49.1737 5.76709 31.9697C5.76709 14.7667 20.6509 0.799988 38.9835 0.799988Z" fill="#005CB9" fill-opacity="0.4"/>
<g filter="url(#filter0_b_408_559)">
<path d="M34.2164 8.06073C52.549 8.06073 67.4328 22.0274 67.4328 39.2304V66.694C67.4328 68.7394 65.6631 70.4001 63.4833 70.4001H34.2164C15.8838 70.4001 1 56.4344 1 39.2304C1 22.0274 15.8838 8.06073 34.2164 8.06073Z" fill="#D9D9D9" fill-opacity="0.2"/>
<path d="M15.5058 44.4209C18.7413 44.4209 21.3642 41.9596 21.3642 38.9234C21.3642 35.8872 18.7413 33.4259 15.5058 33.4259C12.2702 33.4259 9.64731 35.8872 9.64731 38.9234C9.64731 41.9596 12.2702 44.4209 15.5058 44.4209Z" fill="#D9D9D9" fill-opacity="0.2"/>
<path d="M34.2418 44.4209C37.4774 44.4209 40.1003 41.9596 40.1003 38.9234C40.1003 35.8872 37.4774 33.4259 34.2418 33.4259C31.0063 33.4259 28.3833 35.8872 28.3833 38.9234C28.3833 41.9596 31.0063 44.4209 34.2418 44.4209Z" fill="#D9D9D9" fill-opacity="0.2"/>
<path d="M52.9778 44.4209C56.2134 44.4209 58.8363 41.9596 58.8363 38.9234C58.8363 35.8872 56.2134 33.4259 52.9778 33.4259C49.7423 33.4259 47.1194 35.8872 47.1194 38.9234C47.1194 41.9596 49.7423 44.4209 52.9778 44.4209Z" fill="#D9D9D9" fill-opacity="0.2"/>
<path d="M34.2164 8.06073C52.549 8.06073 67.4328 22.0274 67.4328 39.2304V66.694C67.4328 68.7394 65.6631 70.4001 63.4833 70.4001H34.2164C15.8838 70.4001 1 56.4344 1 39.2304C1 22.0274 15.8838 8.06073 34.2164 8.06073Z" stroke="white" stroke-width="2" stroke-miterlimit="10"/>
<path d="M15.5058 44.4209C18.7413 44.4209 21.3642 41.9596 21.3642 38.9234C21.3642 35.8872 18.7413 33.4259 15.5058 33.4259C12.2702 33.4259 9.64731 35.8872 9.64731 38.9234C9.64731 41.9596 12.2702 44.4209 15.5058 44.4209Z" stroke="white" stroke-width="2" stroke-miterlimit="10"/>
<path d="M34.2418 44.4209C37.4774 44.4209 40.1003 41.9596 40.1003 38.9234C40.1003 35.8872 37.4774 33.4259 34.2418 33.4259C31.0063 33.4259 28.3833 35.8872 28.3833 38.9234C28.3833 41.9596 31.0063 44.4209 34.2418 44.4209Z" stroke="white" stroke-width="2" stroke-miterlimit="10"/>
<path d="M52.9778 44.4209C56.2134 44.4209 58.8363 41.9596 58.8363 38.9234C58.8363 35.8872 56.2134 33.4259 52.9778 33.4259C49.7423 33.4259 47.1194 35.8872 47.1194 38.9234C47.1194 41.9596 49.7423 44.4209 52.9778 44.4209Z" stroke="white" stroke-width="2" stroke-miterlimit="10"/>
</g>
<defs>
<filter id="filter0_b_408_559" x="-4" y="3.06073" width="76.4327" height="72.3394" filterUnits="userSpaceOnUse" color-interpolation-filters="sRGB">
<feFlood flood-opacity="0" result="BackgroundImageFix"/>
<feGaussianBlur in="BackgroundImageFix" stdDeviation="2"/>
<feComposite in2="SourceAlpha" operator="in" result="effect1_backgroundBlur_408_559"/>
<feBlend mode="normal" in="SourceGraphic" in2="effect1_backgroundBlur_408_559" result="shape"/>
</filter>
</defs>
</svg>
